<?xml version="1.0" encoding="utf-8"?>
<!-- Generator: Adobe Illustrator 19.2.0, SVG Export Plug-In . SVG Version: 6.00 Build 0)  -->
<!DOCTYPE svg PUBLIC "-//W3C//DTD SVG 1.1//EN" "http://www.w3.org/Graphics/SVG/1.1/DTD/svg11.dtd">
<svg version="1.1" id="Layer_1" xmlns="http://www.w3.org/2000/svg" xmlns:xlink="http://www.w3.org/1999/xlink" x="0px" y="0px"
	 viewBox="0 0 150 150" style="enable-background:new 0 0 150 150;" xml:space="preserve">
<style type="text/css">
	.st0{fill:none;stroke:#000000;stroke-width:2;stroke-miterlimit:10;}
	.st1{fill:none;stroke:#000000;stroke-width:1.1339;stroke-miterlimit:10;}
</style>
<g>
	<path d="M97.9,93.3c-0.7-0.5-1.4-1-2.1-1.7c-0.7-0.7-1.5-1.3-2.4-1.9c-0.6-0.5-1.2-0.9-1.8-1.4c-2.8-2.3-4.3-0.8-4.8-0.4
		c-2.3,2.2-4.5,3.3-6.7,3.3c0,0-0.1,0-0.1,0c-3.5,0-6.4-2.7-8.8-5.2c-4-4.1-7-8.8-9-13.9l-0.1-0.3c-0.8-2.1-2.1-5.5,1.2-7.5
		c5.3-3.2,4.4-7.6,3.4-12.6c-0.1-0.7-0.3-1.4-0.4-2.1c-0.6-3.4-2.1-5.7-4.3-6.4c-2.2-0.7-4.8,0.1-7.4,2.5c-3,2.7-4.8,5.8-5.4,9.5
		c0,0.3-0.1,0.6-0.1,0.9c-0.1,0.6-0.2,1.1-0.2,1.6l0,0.2c0,1-0.1,2,0.1,2.9c4.1,21.6,15.3,36.5,34,45.4c3.2,1.5,6.5,1,9.6,0.2
		c4.5-1.1,7.2-3.7,8.3-7.7C101.6,96.1,100.2,95,97.9,93.3z"/>
	<path d="M75,0C33.6,0,0,33.6,0,75c0,41.4,33.6,75,75,75c41.4,0,75-33.6,75-75C150,33.6,116.4,0,75,0z M103.7,99.3
		c-1.3,5-4.9,8.4-10.3,9.8c-1.8,0.5-3.8,0.8-5.8,0.8c-1.9,0-3.8-0.3-5.7-1.2c-19.4-9.2-31.4-25.1-35.6-47.4
		c-0.2-1.2-0.2-2.4-0.1-3.5l0-0.2c0-0.7,0.1-1.3,0.2-2c0-0.3,0.1-0.6,0.1-0.8l0,0c0.7-4.3,2.8-8.1,6.3-11.2c3.4-3,7.1-4.1,10.2-3
		c3.1,1.1,5.3,4.1,6.1,8.6c0.1,0.7,0.3,1.4,0.4,2c1.1,5.3,2.3,11.3-4.6,15.6c-1.1,0.7-1,1.6,0,4.1l0.1,0.3c1.8,4.8,4.6,9.1,8.3,13
		c2.5,2.6,4.6,4.3,6.8,4.3c1.5,0,3.1-0.8,4.8-2.5c2.4-2.3,5.6-2.3,8.6,0.2c0.5,0.5,1.1,0.9,1.7,1.3c0.9,0.6,1.8,1.3,2.6,2.1
		c0.5,0.5,1.2,1,1.8,1.4C101.8,92.6,104.8,94.8,103.7,99.3z"/>
</g>
</svg>
