<?xml version="1.0" encoding="utf-8"?>
<!-- Generator: Adobe Illustrator 19.2.0, SVG Export Plug-In . SVG Version: 6.00 Build 0)  -->
<!DOCTYPE svg PUBLIC "-//W3C//DTD SVG 1.1//EN" "http://www.w3.org/Graphics/SVG/1.1/DTD/svg11.dtd">
<svg version="1.1" id="Layer_1" xmlns="http://www.w3.org/2000/svg" xmlns:xlink="http://www.w3.org/1999/xlink" x="0px" y="0px"
	 viewBox="0 0 74 74" style="enable-background:new 0 0 74 74;" xml:space="preserve">
<style type="text/css">
	.st0{fill:none;stroke:#0e364c;stroke-width:2;stroke-miterlimit:10;}
	.st1{fill:none;stroke:#0e364c;stroke-width:1.1339;stroke-miterlimit:10;}
	path{fill:#0e364c;}
</style>
<circle class="st0" cx="37" cy="37" r="35"/>
<g>
	<path d="M18.3,57c-0.2,0-0.4-0.1-0.5-0.2c-0.2-0.2-0.1-0.5,0.1-0.7c3.1-3.5,2.9-6.2,2.8-9.4c-0.1-1-0.1-2.1,0-3.2
		c0.4-4.8,4-6,4.1-6c0.3-0.1,0.6,0.1,0.7,0.4c0.1,0.3-0.1,0.6-0.4,0.7c-0.1,0.1-3,1-3.3,5c-0.1,1.1-0.1,2.1,0,3.1
		c0.1,2.7,0.2,5.4-1.9,8.6l7.1-2.5c0.3-0.1,0.6,0.1,0.8,0.4c0.1,0.3-0.1,0.6-0.4,0.8l-9,3.1C18.4,57,18.4,57,18.3,57z"/>
	<path d="M23.9,51.8c-0.1,0-0.2,0-0.3-0.1c-0.3-0.2-0.4-0.5-0.2-0.8c0.1-0.2,0.2-0.9,0.2-1.7c0.1-1.1,0.3-2.7,0.8-4.4
		c0.4-1.3,1.7-2.7,1.7-2.8c0.2-0.2,0.6-0.2,0.8,0s0.2,0.6,0,0.8c0,0-1.1,1.2-1.4,2.2c-0.5,1.7-0.6,3.1-0.7,4.2
		c-0.1,1-0.2,1.7-0.4,2.1C24.3,51.7,24,51.8,23.9,51.8z"/>
	<path d="M22.7,58.6c-0.1,0-0.2,0-0.3-0.1c-0.2-0.1-0.3-0.4-0.3-0.6l0.3-3.3c0-0.4,0.3-0.6,0.6-0.5c0.4,0,0.6,0.3,0.5,0.6l-0.2,2.1
		c2.4-1.5,4.3-1.5,6.5-1.7c0.9-0.1,1.9-0.1,3.1-0.3c3.8-0.5,6.3-6,6.3-6c0.1-0.3,0.5-0.4,0.8-0.3c0.3,0.1,0.4,0.5,0.3,0.8
		s-2.8,6.1-7.2,6.7c-1.2,0.2-2.2,0.2-3.2,0.3c-2.4,0.1-4.3,0.2-7,2.1C23,58.6,22.8,58.6,22.7,58.6z"/>
	<path d="M39.8,49.5c-3,0-7.5-3.5-8.5-4.3c-1.9-1.5-6.4-6.1-6.5-8.7c-0.1-0.6,0.2-1.1,0.5-1.3c1.7-1.7,5.5-1.4,6-1.3
		c0.3,0.1,0.6,0.3,0.5,0.6s-0.3,0.5-0.6,0.5c-1.1-0.1-4-0.1-5.1,0.9c0,0-0.1,0.1-0.1,0.4c0.1,1.8,3.7,5.9,6.1,7.8
		c2.9,2.4,6.8,4.5,8.3,4c0.2-0.1,0.6-0.3,0.7-1c0.6-3.1-0.2-4.6-0.2-4.6c-0.2-0.3-0.1-0.6,0.2-0.8c0.3-0.2,0.6-0.1,0.8,0.2
		c0.1,0.1,1,1.8,0.3,5.4c-0.2,1.2-0.9,1.7-1.5,1.9C40.4,49.4,40.1,49.5,39.8,49.5z"/>
	<path d="M23.9,32.4c-0.2,0-0.4-0.1-0.5-0.2c-0.1-0.2-0.1-0.5,0-0.6c0.2-0.4,6-9.6,9.1-12c3.4-2.6,7.5-0.2,7.7-0.1
		c0.3,0.2,0.4,0.5,0.2,0.8c-0.2,0.3-0.5,0.4-0.8,0.2c-0.1,0-3.7-2.1-6.4-0.1c-2.4,1.8-6.4,8-8.1,10.5l6.2-1.1
		c0.3-0.1,0.6,0.2,0.7,0.5s-0.2,0.6-0.5,0.7l-7.5,1.3C24,32.4,23.9,32.4,23.9,32.4z"/>
	<path d="M45.5,49.9c-0.1,0-0.2,0-0.2-0.1c-0.2-0.1-0.4-0.3-0.4-0.5l-0.2-8.6c0-0.4,0.2-0.6,0.6-0.6c0.3,0,0.6,0.2,0.6,0.6L46,48
		c2.2-2.1,7.3-7.4,8.6-10.1c1.5-3.1-1.4-6.2-1.4-6.3c-0.2-0.2-0.2-0.6,0.1-0.8s0.6-0.2,0.8,0.1c0.1,0.2,3.4,3.7,1.5,7.5
		c-1.7,3.5-9.5,11-9.8,11.4C45.8,49.8,45.7,49.9,45.5,49.9z"/>
	<path d="M37.1,40.9c-0.1,0-0.2,0-0.3-0.1c-0.1-0.1-1.5-0.9-4.3-3.7c-3.3-3.3-2.2-7,3.9-14.3c6.9-8.2,15.6-7.4,15.6-7.4
		c1.2,0.1,2.1,0.9,2.1,0.9c0.2,0.2,0.3,0.6,0.1,0.8c-0.2,0.2-0.6,0.3-0.8,0.1c0,0-0.7-0.5-1.5-0.6c-0.1,0-8.1-0.8-14.6,6.9
		c-7.1,8.3-5.9,10.7-4,12.7c2.7,2.7,4,3.5,4.1,3.5c0.3,0.2,0.4,0.5,0.2,0.8C37.4,40.8,37.2,40.9,37.1,40.9z"/>
	<path d="M41.5,42.8c-1.1,0-2.1-0.4-3.2-1.1c-3.4-2.2-4.5-3.4-4.5-3.4c-0.2-0.2-0.2-0.6,0.1-0.8c0.2-0.2,0.6-0.2,0.8,0.1
		c0,0,1.1,1.2,4.3,3.2c2.3,1.5,5,2.1,11.6-6.5c6.1-8,3.7-15.6,3.7-15.7c-0.2-0.8-0.9-1.4-0.9-1.4c-0.2-0.2-0.3-0.6-0.1-0.8
		c0.2-0.2,0.6-0.3,0.8-0.1c0.1,0.1,0.9,0.8,1.3,1.9c0,0.1,2.7,8.4-3.9,16.8C47.3,40.4,44.3,42.8,41.5,42.8z"/>
</g>
</svg>
