<?xml version="1.0" encoding="utf-8"?>
<!-- Generator: Adobe Illustrator 19.2.0, SVG Export Plug-In . SVG Version: 6.00 Build 0)  -->
<!DOCTYPE svg PUBLIC "-//W3C//DTD SVG 1.1//EN" "http://www.w3.org/Graphics/SVG/1.1/DTD/svg11.dtd">
<svg version="1.1" id="Layer_1" xmlns="http://www.w3.org/2000/svg" xmlns:xlink="http://www.w3.org/1999/xlink" x="0px" y="0px"
	 viewBox="0 0 74 74" style="enable-background:new 0 0 74 74;" xml:space="preserve">
<style type="text/css">
	.st0{fill:none;stroke:#0e364c;stroke-width:2;stroke-miterlimit:10;}
	.st1{fill:none;stroke:#0e364c;stroke-width:1.1339;stroke-miterlimit:10;}
	path{fill:#0e364c;}
</style>
<circle class="st0" cx="37" cy="37" r="35"/>
<g>
	<path d="M46.8,31.3H46v-3.7c0-5-4.1-9-9-9c-5,0-9,4.1-9,9v3.7h-0.8c-1.2,0-2.2,1-2.2,2.2v19.7c0,1.2,1,2.2,2.2,2.2h19.7
		c1.2,0,2.2-1,2.2-2.2V33.6C49,32.3,48.1,31.3,46.8,31.3z M30.2,27.6c0-3.8,3.1-6.8,6.8-6.8c3.8,0,6.8,3.1,6.8,6.8v3.7H30.2V27.6z
		 M47.2,53.2c0,0.2-0.1,0.3-0.3,0.3H27.2c-0.2,0-0.3-0.1-0.3-0.3V33.6c0-0.2,0.1-0.3,0.3-0.3h19.7c0.2,0,0.3,0.1,0.3,0.3V53.2z"/>
	<path d="M37,39.7c-1.1,0-2,0.9-2,2c0,0.7,0.4,1.3,1,1.7v2.1c0,0.5,0.4,1,1,1c0.5,0,1-0.4,1-1v-2.1c0.6-0.3,1-1,1-1.7
		C39,40.5,38.1,39.7,37,39.7z"/>
</g>
</svg>
