<?xml version="1.0" encoding="utf-8"?>
<!-- Generator: Adobe Illustrator 19.2.0, SVG Export Plug-In . SVG Version: 6.00 Build 0)  -->
<!DOCTYPE svg PUBLIC "-//W3C//DTD SVG 1.1//EN" "http://www.w3.org/Graphics/SVG/1.1/DTD/svg11.dtd">
<svg version="1.1" id="Layer_1" xmlns="http://www.w3.org/2000/svg" xmlns:xlink="http://www.w3.org/1999/xlink" x="0px" y="0px"
	 viewBox="0 0 74 74" style="enable-background:new 0 0 74 74;" xml:space="preserve">
<style type="text/css">
	.st0{fill:none;stroke:#000000;stroke-width:2;stroke-miterlimit:10;}
	.st1{fill:none;stroke:#000000;stroke-width:1.1339;stroke-miterlimit:10;}
</style>
<circle class="st0" cx="37" cy="37" r="35"/>
<g>
	<path d="M40.5,56.5c-0.7,0-1.2-0.3-1.6-0.6l-3.7-2.3c-0.3-0.2-0.4-0.6-0.2-0.9s0.6-0.4,0.9-0.2l3.7,2.4c0.1,0.1,0.8,0.6,1.7-0.1
		c0.2-0.2,0.5-0.6,0.6-0.9c0-0.2-0.1-0.4-0.3-0.7c-1.2-1.2-1.2-1.2-1.1-1.6l0.1-0.4l0.4-0.1c0.4-0.1,0.5,0,1.6,1.2
		c0.9,0.9,2.1,1.1,2.7,0.4c0.3-0.3,0.7-0.8,0.7-1.3c0-0.3-0.1-0.6-0.4-0.8l0,0c-0.4-0.4-0.6-0.6-0.8-0.8c-0.1-0.1-0.2-0.2-0.2-0.2
		l0,0c-0.2-0.3-0.2-0.4-0.2-0.6l0.1-0.4l0.4-0.1c0.2-0.1,0.3-0.1,0.6,0.2l0,0c0,0,0.1,0.1,0.2,0.2c0.2,0.2,0.4,0.4,0.7,0.7l0,0
		c0.7,0.6,1.9,0.5,2.4-0.1c0.3-0.3,0.6-0.9,0.6-1.3c0-0.2-0.1-0.4-0.2-0.6l0,0c-0.6-0.6-0.9-0.9-1.1-1.1c-0.1-0.1-0.1-0.1-0.1-0.1
		l0,0C48,46.4,48,46.3,48,46.1l0.1-0.4l0.4-0.1c0.2-0.1,0.3-0.1,0.6,0.2l0,0c0,0,0.1,0.1,0.1,0.1c0.2,0.2,0.6,0.6,1.1,1.1l0,0
		c0.2,0.2,0.5,0.2,0.9,0.2c0.6,0,1.3-0.3,1.7-0.8c0.7-0.7,0.3-1.6,0-2.1l0,0c-0.7-1.1-1.9-2.3-3.5-3.7c-0.6-0.6-1.3-1.2-2.1-1.9
		c-0.2-0.2-0.4-0.4-0.7-0.4c-1.9-0.7-5.5-2.5-7.5-6c-0.4-0.7-1.2-1.1-2-1c-0.4,0.1-0.8,0.2-1.1,0.4c-1.7,1.4-4.2,2.3-6,2
		c-0.8-0.1-1.4-0.5-1.7-1.1c-1.3-2.1,0.8-4,4.4-7.2c3.7-3.4,7.7-1.4,7.9-1.4l7.5,3.4c0.5,0.2,1.1,0.2,1.6,0.1l6-2.4
		c0.8-0.3,1.7-0.3,2.6,0.1c0.8,0.4,1.4,1,1.7,1.9l3.5,9.7c0.6,1.6-0.2,3.4-1.7,4.1l-7.7,3.6c0.4,1.1,0.2,2.1-0.4,2.9
		c-0.7,0.7-1.7,1.2-2.6,1.2c-0.1,0-0.2,0-0.3,0c0,0.8-0.5,1.7-0.9,2.1c-0.6,0.6-1.6,0.9-2.5,0.8v0.1c0,0.7-0.4,1.4-1.1,2.2
		c-0.7,0.7-1.9,0.9-2.9,0.5c-0.1,0.8-0.7,1.3-1,1.6C41.7,56.3,41.1,56.5,40.5,56.5z M37.2,30c1.2,0,2.3,0.6,2.9,1.6
		c1.8,3.2,5.1,4.8,6.9,5.5c0.4,0.2,0.8,0.4,1.1,0.7c0.7,0.7,1.4,1.4,2,1.9c1.4,1.4,2.6,2.4,3.4,3.5l7.8-3.6c0.9-0.4,1.4-1.6,1.1-2.6
		l-3.5-9.7c-0.2-0.5-0.6-0.9-1.1-1.2c-0.5-0.2-1.1-0.2-1.6,0l-6,2.4c-0.8,0.3-1.8,0.3-2.6-0.1l-7.5-3.4c-0.1-0.1-3.4-1.6-6.5,1.2
		c-3.5,3.1-4.8,4.5-4.1,5.6c0.1,0.2,0.4,0.4,0.9,0.5c1.4,0.2,3.5-0.6,5-1.7c0.4-0.4,1.1-0.6,1.7-0.7C36.9,30,37.1,30,37.2,30z"/>
	<path d="M21.2,44.6c-0.1,0-0.2-0.1-0.3-0.1l-9.2-5.9c-1.6-1-2-3-1.1-4.5l5.5-8.7c0.9-1.4,2.8-1.9,4.3-1.2l3.7,1.9
		c0.5,0.2,1.1,0.3,1.6,0.1c4.6-1.7,11-2.6,11.3-2.7c0.3-0.1,0.7,0.2,0.7,0.5c0.1,0.3-0.2,0.7-0.5,0.7c-0.1,0-6.5,1-11,2.6
		c-0.9,0.3-1.8,0.2-2.6-0.2l-3.7-1.9c-0.9-0.5-2.1-0.2-2.7,0.7l-5.5,8.7c-0.6,0.9-0.3,2.2,0.6,2.8l9.2,5.9c0.3,0.2,0.4,0.6,0.2,0.9
		C21.7,44.5,21.5,44.6,21.2,44.6z"/>
	<path d="M22.8,49.5L22.8,49.5c-1.5,0-3.1-0.9-3.1-2.7c-0.1-1.6,1.2-3.8,2.6-4.4c0.2-0.1,0.4-0.1,0.7-0.1c0.9,0,2,0.6,2.5,1.4
		c0.2,0.3,0.3,0.9,0.4,1.2v0.3l-0.2,0.2c-1,1.1-1.7,2.5-1.7,3.6v0.5l-0.5,0.1C23.2,49.5,23,49.5,22.8,49.5z M23,43.4
		c-0.1,0-0.1,0-0.2,0c-1,0.4-1.9,2.1-1.9,3.2c0.1,1.4,1.4,1.6,1.9,1.6c0.2-1.2,0.9-2.6,1.8-3.6c-0.1-0.2-0.1-0.4-0.1-0.4
		C24.2,43.8,23.4,43.4,23,43.4z"/>
	<path d="M25.6,52.6L25.6,52.6c-1.3,0-2.4-1.1-2.8-2.8c-0.6-2.3,1.7-5.7,3.8-6.7c1.7-0.7,3.1-0.1,3.5,1.7c0.1,0.2,0,0.8-0.1,1.6
		l-0.1,0.2l-0.2,0.1c-1.2,1.1-2.1,3.3-1.9,4.5v0.2l-0.2,0.2c-0.2,0.2-0.5,0.4-0.7,0.6C26.4,52.5,26,52.6,25.6,52.6z M27.9,44.1
		c-0.2,0-0.5,0.1-0.8,0.2c-1.7,0.7-3.5,3.7-3.1,5.2c0.4,1.6,1.2,2.2,2.3,1.7c0.1-0.1,0.2-0.1,0.2-0.2c0-1.6,0.9-3.8,2.2-5.1
		c0.1-0.6,0.1-0.8,0.1-0.9C28.6,44.1,28,44.1,27.9,44.1z"/>
	<path d="M29.2,54.8L29.2,54.8c-0.9,0-2-0.5-2.7-2.9c-0.5-1.7,0.9-5.8,3.2-6.8c0.5-0.2,1-0.3,1.4-0.3c1.4,0,2.4,1.1,2.6,2.1
		c0,0.1,0.1,0.4,0,0.9l-0.1,0.5l-0.6,0.1c-0.1,0-0.7,0.2-1.2,1c-0.6,0.8-0.7,1.9-0.4,3.2c0,0.1,0.1,0.2,0.1,0.4l0.1,0.4l-0.2,0.2
		c-0.3,0.3-0.6,0.6-0.9,0.7C30.1,54.6,29.7,54.8,29.2,54.8z M31.3,46c-0.3,0-0.6,0.1-0.9,0.2c-1.6,0.7-2.9,4-2.6,5.3
		c0.2,0.7,0.7,2,1.4,2c0.2,0,0.5-0.1,0.8-0.2c0.1-0.1,0.2-0.1,0.3-0.2c0-0.1-0.1-0.1-0.1-0.2c-0.4-2.1,0.1-3.4,0.6-4.2
		c0.5-0.7,1.1-1.2,1.7-1.4c0-0.1,0-0.1,0-0.1C32.5,46.8,32.1,46,31.3,46z"/>
	<path d="M34.1,56.2L34.1,56.2L34.1,56.2c-1.2-0.1-3.3-0.5-3.9-3.4c-0.4-2.1,0.1-3.4,0.6-4.2c0.6-0.9,1.4-1.4,2.1-1.5
		c1.1-0.2,2.6,0.6,3.1,2.3c0.3,1.1,0.6,4.6-0.6,6C35.1,55.9,34.7,56.2,34.1,56.2z M33.3,48.3c-0.1,0-0.1,0-0.1,0
		c-0.2,0.1-0.7,0.3-1.2,1c-0.6,0.8-0.7,1.9-0.4,3.2c0.3,1.5,1.2,2.3,2.6,2.4v0.6V55l0,0c0.1,0,0.2,0,0.3-0.2c0.7-0.9,0.7-3.9,0.4-5
		C34.6,48.8,33.8,48.3,33.3,48.3z"/>
	<path d="M42.2,53.6c-0.2,0-0.3-0.1-0.4-0.2l-4-4c-0.2-0.2-0.2-0.6,0-0.9c0.2-0.2,0.6-0.2,0.9,0l4.1,4c0.2,0.2,0.2,0.6,0,0.9
		C42.5,53.5,42.4,53.6,42.2,53.6z"/>
	<path d="M46,51c-0.2,0-0.3-0.1-0.4-0.2l-4.8-4.9c-0.2-0.2-0.2-0.6,0-0.9c0.2-0.2,0.6-0.2,0.9,0l4.8,4.9c0.2,0.2,0.2,0.6,0,0.9
		C46.3,50.9,46.1,51,46,51z"/>
	<path d="M49.7,48.2c-0.2,0-0.3-0.1-0.4-0.2l-5.7-6c-0.2-0.2-0.2-0.6,0-0.9c0.2-0.2,0.6-0.2,0.9,0l5.7,6c0.2,0.2,0.2,0.6,0,0.9
		C50,48.1,49.8,48.2,49.7,48.2z"/>
</g>
</svg>
