<?xml version="1.0" encoding="utf-8"?>
<!-- Generator: Adobe Illustrator 19.2.0, SVG Export Plug-In . SVG Version: 6.00 Build 0)  -->
<!DOCTYPE svg PUBLIC "-//W3C//DTD SVG 1.1//EN" "http://www.w3.org/Graphics/SVG/1.1/DTD/svg11.dtd">
<svg version="1.1" id="Layer_1" xmlns="http://www.w3.org/2000/svg" xmlns:xlink="http://www.w3.org/1999/xlink" x="0px" y="0px"
	 viewBox="0 0 150 150" style="enable-background:new 0 0 150 150;" xml:space="preserve">
<style type="text/css">
	.st0{fill:none;stroke:#000000;stroke-width:2;stroke-miterlimit:10;}
	.st1{fill:none;stroke:#000000;stroke-width:1.1339;stroke-miterlimit:10;}
</style>
<g>
	<path d="M97.7,50.4c3,4.5,4.5,9.6,4.5,14.8c0,13.8-11.1,25.8-27,30.1c6.4,2,13.4,2.3,20.3,0.8l0.8-0.2l11,11V91.3l0.6-0.4
		c6.8-4.6,10.7-11.1,10.7-18C118.6,62.8,110,53.8,97.7,50.4z"/>
	<path d="M63,41.1c-17.4,0-31.6,10.8-31.6,24c0,6.8,3.9,13.4,10.7,18l0.6,0.4V99l11-11l0.8,0.2c2.8,0.6,5.7,0.9,8.5,0.9
		c17.4,0,31.6-10.8,31.6-24S80.4,41.1,63,41.1z"/>
	<path d="M75,0C33.6,0,0,33.6,0,75c0,41.4,33.6,75,75,75c41.4,0,75-33.6,75-75C150,33.6,116.4,0,75,0z M54.6,91.2l-14.7,14.7V85
		c-7.2-5.1-11.3-12.3-11.3-19.9C28.6,50.3,44,38.3,63,38.3s34.4,12,34.4,26.8S81.9,92,63,92C60.2,92,57.4,91.7,54.6,91.2z
		 M110.1,92.8v20.9L95.4,99c-8.9,1.8-18.1,0.6-25.8-2.9l-4.3-2l4.6-0.7c17-2.7,29.3-14.5,29.3-28.3c0-5.7-2.1-11.3-6.2-16.1l-2.5-3
		l3.9,0.7c15.9,2.7,26.9,13.5,26.9,26.2C121.4,80.5,117.3,87.7,110.1,92.8z"/>
</g>
</svg>
