<?xml version="1.0" encoding="utf-8"?>
<!-- Generator: Adobe Illustrator 19.2.0, SVG Export Plug-In . SVG Version: 6.00 Build 0)  -->
<!DOCTYPE svg PUBLIC "-//W3C//DTD SVG 1.1//EN" "http://www.w3.org/Graphics/SVG/1.1/DTD/svg11.dtd">
<svg version="1.1" id="Layer_1" xmlns="http://www.w3.org/2000/svg" xmlns:xlink="http://www.w3.org/1999/xlink" x="0px" y="0px"
	 viewBox="0 0 74 74" style="enable-background:new 0 0 74 74;" xml:space="preserve">
<style type="text/css">
	.st0{fill:none;stroke:#0e364c;stroke-width:2;stroke-miterlimit:10;}
	.st1{fill:none;stroke:#0e364c;stroke-width:1.1339;stroke-miterlimit:10;}
	path{fill:#0e364c;}
	</style>
<circle class="st0" cx="37" cy="37" r="35"/>
<path d="M57.3,27.4c0,2.4-0.8,4.6-2.1,6.4c-0.6,0.8-1.3,1.5-2.1,2.1c-1.8,1.3-4,2.1-6.4,2.1H27.4c-4.7,0-8.5,3.8-8.5,8.5
	s3.8,8.5,8.5,8.5s8.6-3.8,8.6-8.5v-2.8l-2.4,2.4c-0.4,0.4-1.1,0.4-1.5,0c-0.4-0.4-0.4-1.1,0-1.5l4.3-4.3c0.4-0.4,1.1-0.4,1.5,0
	l4.3,4.3c0.4,0.4,0.4,1.1,0,1.5c-0.2,0.2-0.5,0.3-0.8,0.3c-0.3,0-0.6-0.1-0.8-0.3l-2.5-2.4v2.8c0,2.4-0.8,4.6-2.2,6.4
	c-0.6,0.8-1.4,1.5-2.2,2.1c-1.8,1.3-4,2.1-6.4,2.1s-4.6-0.8-6.4-2.1c-0.8-0.6-1.5-1.3-2.1-2.1c-1.3-1.8-2.1-4-2.1-6.4
	c0-2.4,0.8-4.6,2.1-6.4c0.6-0.8,1.3-1.5,2.1-2.1c1.8-1.3,4-2.1,6.4-2.1h19.3c4.7,0,8.5-3.8,8.5-8.5s-3.8-8.5-8.6-8.5
	s-8.6,3.8-8.6,8.5v2.8l2.5-2.4c0.4-0.4,1.1-0.4,1.5,0c0.4,0.4,0.4,1.1,0,1.5l-4,4l-0.3,0.3c-0.2,0.2-0.5,0.3-0.8,0.3
	c-0.3,0-0.5-0.1-0.8-0.3L36,33.2l-4-4c-0.4-0.4-0.4-1.1,0-1.5c0.4-0.4,1.1-0.4,1.5,0l2.4,2.4v-2.8c0-2.4,0.8-4.6,2.2-6.4
	c0.6-0.8,1.3-1.5,2.1-2.1c1.8-1.3,4-2.1,6.4-2.1s4.6,0.8,6.4,2.1c0.8,0.6,1.5,1.3,2.1,2.1C56.5,22.8,57.3,25,57.3,27.4z"/>
</svg>
