<?xml version="1.0" encoding="utf-8"?>
<!-- Generator: Adobe Illustrator 19.2.0, SVG Export Plug-In . SVG Version: 6.00 Build 0)  -->
<!DOCTYPE svg PUBLIC "-//W3C//DTD SVG 1.1//EN" "http://www.w3.org/Graphics/SVG/1.1/DTD/svg11.dtd">
<svg version="1.1" id="Layer_1" xmlns="http://www.w3.org/2000/svg" xmlns:xlink="http://www.w3.org/1999/xlink" x="0px" y="0px"
	 viewBox="0 0 74 74" style="enable-background:new 0 0 74 74;" xml:space="preserve">
<style type="text/css">
	.st0{fill:none;stroke:#000000;stroke-width:2;stroke-miterlimit:10;}
	.st1{fill:none;stroke:#000000;stroke-width:1.1339;stroke-miterlimit:10;}
</style>
<g>
	<path d="M44.5,24.8c-0.5,0.5-1.3,0.5-1.7,0l-4.6-4.6v5.3V38v8c0,0.7-0.5,1.2-1.2,1.2c-0.7,0-1.2-0.5-1.2-1.2v-8V25.5v-5.3l-4.6,4.6
		c-0.5,0.5-1.3,0.5-1.7,0c-0.5-0.5-0.5-1.3,0-1.7l6.7-6.7c0.5-0.5,1.3-0.5,1.7,0l6.7,6.7C45,23.5,45,24.3,44.5,24.8z"/>
	<path d="M52.8,29.3h-9.7v2.2h9.7c0.8,0,1.4,0.6,1.4,1.4v21.6c0,0.8-0.6,1.4-1.4,1.4H21.2c-0.8,0-1.4-0.6-1.4-1.4V32.8
		c0-0.8,0.6-1.4,1.4-1.4h9.7v-2.2h-9.7c-2,0-3.5,1.6-3.5,3.5v21.6c0,2,1.6,3.6,3.5,3.6h31.6c2,0,3.6-1.6,3.6-3.6V32.8
		C56.4,30.8,54.8,29.3,52.8,29.3z"/>
</g>
</svg>
