<svg xmlns="http://www.w3.org/2000/svg" width="64" height="64" viewBox="0 0 64 64">
  <defs>
    <style>
      .cls-1 {
        fill: #002a42;
        fill-rule: evenodd;
      }
    </style>
  </defs>
  <g id="phone.svg">
    <path class="cls-1" d="M777.2,1077a4.2,4.2,0,0,1-3.056-1.02c-0.165-.17-0.343-0.34-0.526-0.51-1.171-1.11-2.628-2.5-2.551-4.38,0.053-1.29.811-2.5,2.317-3.72,4.126-3.32,5.889-2.11,7.93-.04l0.319,0.32c0.011,0.01,1.133.54,5.856-4.18,3.852-3.85,4.151-5.31,4.151-5.66,0-.1-0.019-0.12-0.028-0.12l-0.282-.28c-2.073-2.05-3.281-3.82.071-7.97,1.218-1.53,2.436-2.31,3.72-2.36,1.85-.09,3.195,1.35,4.284,2.5,0.183,0.19.36,0.38,0.535,0.55a4.326,4.326,0,0,1,1.052,3.14c-0.008,3.24-2.21,9.19-8.39,15.31C786.953,1074.22,780.978,1077,777.2,1077Zm0.487-9.69c-0.717,0-1.619.46-3.051,1.62a3.47,3.47,0,0,0-1.576,2.24c-0.04.98,1.009,1.97,1.933,2.85,0.195,0.19.384,0.37,0.561,0.55,1.45,1.45,8.491-.26,15.64-7.4l0-.01c5.379-5.32,7.793-10.81,7.8-13.89a2.554,2.554,0,0,0-.467-1.73c-0.187-.18-0.378-0.39-0.573-0.59-0.853-.9-1.827-1.93-2.749-1.88a3.522,3.522,0,0,0-2.25,1.62c-2.481,3.07-1.822,3.72-.227,5.3l0.29,0.28a2.131,2.131,0,0,1,.614,1.54c0,1-.491,2.82-4.736,7.07-2.994,2.99-6.687,6.17-8.675,4.19l-0.331-.34C779.06,1067.89,778.488,1067.31,777.684,1067.31Z" transform="translate(-754 -1030)"/>
  </g>
</svg>
